<svg width="18" height="18" viewBox="0 0 20 20" fill="#637381" xmlns="http://www.w3.org/2000/svg"><path d="M8.25 8.46875C7.6875 8.46875 7.28125 8.96875 7.28125 9.53125C7.28125 10.0938 7.71875 10.5938 8.25 10.5938C8.8125 10.5938 9.21875 10.125 9.21875 9.53125C9.25 8.9375 8.8125 8.46875 8.25 8.46875Z" fill="#637381"></path><path d="M11.75 10.5625C12.285 10.5625 12.7187 10.0868 12.7187 9.5C12.7187 8.9132 12.285 8.4375 11.75 8.4375C11.215 8.4375 10.7812 8.9132 10.7812 9.5C10.7812 10.0868 11.215 10.5625 11.75 10.5625Z" fill="#637381"></path><path d="M16.4687 0.3125H3.53125C2.4375 0.3125 1.53125 1.1875 1.53125 2.28125V15.375C1.53125 16.4688 2.40625 17.3438 3.5 17.3438H14.4687L13.9375 15.5938L15.1562 16.75L16.3437 17.8437L18.4062 19.6875V2.28125C18.5 1.1875 17.5625 0.3125 16.4687 0.3125ZM12.7187 12.9375C12.7187 12.9375 12.375 12.5313 12.0625 12.1563C13.3437 11.8125 13.8125 11 13.8125 11C13.4062 11.25 13.0312 11.4375 12.7187 11.5625C12.25 11.7812 11.75 11.9062 11.3125 11.9687C10.375 12.1562 9.5625 12.0937 8.8125 11.9687C8.25 11.875 7.8125 11.7188 7.40625 11.5625C7.1875 11.4687 6.90625 11.375 6.6875 11.25C6.65625 11.25 6.65625 11.2188 6.59375 11.2188C6.59375 11.2188 6.5625 11.2187 6.5625 11.1875C6.375 11.0937 6.3125 11 6.3125 11C6.3125 11 6.8125 11.7813 8.03125 12.1563C7.71875 12.5 7.375 12.9375 7.375 12.9375C5.21875 12.8438 4.4375 11.5 4.4375 11.5C4.4375 8.375 5.84375 5.875 5.84375 5.875C7.25 4.8125 8.5625 4.875 8.5625 4.875L8.65625 5C6.875 5.46875 6.09375 6.25 6.09375 6.25C6.09375 6.25 6.3125 6.125 6.65625 6C7.71875 5.5625 8.5 5.4375 8.84375 5.375C8.875 5.375 8.9375 5.375 9.03125 5.375C9.59375 5.28125 10.3125 5.28125 10.9687 5.375C11.9062 5.46875 12.875 5.78125 13.875 6.3125C13.875 6.3125 13.125 5.59375 11.4375 5.09375L11.5625 4.90625C11.5625 4.90625 12.875 4.875 14.2812 5.90625C14.2812 5.90625 15.6875 8.40625 15.6875 11.5313C15.7187 11.5 14.875 12.9063 12.7187 12.9375Z" fill="#637381"></path></svg>