<svg width="22" height="22" viewBox="0 0 22 22" fill="#2d3562"><path d="M11.0001 3.66675C11.9725 3.66675 12.9052 4.05306 13.5928 4.74069C14.2804 5.42832 14.6667 6.36095 14.6667 7.33341C14.6667 8.30587 14.2804 9.2385 13.5928 9.92614C12.9052 10.6138 11.9725 11.0001 11.0001 11.0001C10.0276 11.0001 9.09499 10.6138 8.40736 9.92614C7.71972 9.2385 7.33341 8.30587 7.33341 7.33341C7.33341 6.36095 7.71972 5.42832 8.40736 4.74069C9.09499 4.05306 10.0276 3.66675 11.0001 3.66675ZM11.0001 12.8334C15.0517 12.8334 18.3334 14.4742 18.3334 16.5001V18.3334H3.66675V16.5001C3.66675 14.4742 6.94841 12.8334 11.0001 12.8334Z"></path></svg>