<svg width="20" height="20" viewBox="0 0 20 20" fill="#b6bfc9"><path d="M18.7168 4.99998C18.0751 5.29165 17.3834 5.48331 16.6668 5.57498C17.4001 5.13331 17.9668 4.43331 18.2334 3.59165C17.5418 4.00831 16.7751 4.29998 15.9668 4.46665C15.3084 3.74998 14.3834 3.33331 13.3334 3.33331C11.3751 3.33331 9.77511 4.93331 9.77511 6.90831C9.77511 7.19165 9.80845 7.46665 9.86678 7.72498C6.90011 7.57498 4.25845 6.14998 2.50011 3.99165C2.19178 4.51665 2.01678 5.13331 2.01678 5.78331C2.01678 7.02498 2.64178 8.12498 3.60845 8.74998C3.01678 8.74998 2.46678 8.58331 1.98345 8.33331C1.98345 8.33331 1.98345 8.33331 1.98345 8.35831C1.98345 10.0916 3.21678 11.5416 4.85011 11.8666C4.55011 11.95 4.23345 11.9916 3.90845 11.9916C3.68345 11.9916 3.45845 11.9666 3.24178 11.925C3.69178 13.3333 5.00011 14.3833 6.57511 14.4083C5.35845 15.375 3.81678 15.9416 2.13345 15.9416C1.85011 15.9416 1.56678 15.925 1.28345 15.8916C2.86678 16.9083 4.75011 17.5 6.76678 17.5C13.3334 17.5 16.9418 12.05 16.9418 7.32498C16.9418 7.16665 16.9418 7.01665 16.9334 6.85831C17.6334 6.35831 18.2334 5.72498 18.7168 4.99998Z"></path></svg>