<svg width="18" height="12" viewBox="0 0 18 12" fill="#637381"><path d="M7.33366 8.49984L11.6587 5.99984L7.33366 3.49984V8.49984ZM16.967 1.97484C17.0753 2.3665 17.1503 2.8915 17.2003 3.55817C17.2587 4.22484 17.2837 4.79984 17.2837 5.29984L17.3337 5.99984C17.3337 7.82484 17.2003 9.1665 16.967 10.0248C16.7587 10.7748 16.2753 11.2582 15.5253 11.4665C15.1337 11.5748 14.417 11.6498 13.317 11.6998C12.2337 11.7582 11.242 11.7832 10.3253 11.7832L9.00033 11.8332C5.50866 11.8332 3.33366 11.6998 2.47533 11.4665C1.72533 11.2582 1.24199 10.7748 1.03366 10.0248C0.925326 9.63317 0.850326 9.10817 0.800326 8.44151C0.741992 7.77484 0.716992 7.19984 0.716992 6.69984L0.666992 5.99984C0.666992 4.17484 0.800326 2.83317 1.03366 1.97484C1.24199 1.22484 1.72533 0.741504 2.47533 0.533171C2.86699 0.424837 3.58366 0.349837 4.68366 0.299837C5.76699 0.241504 6.75866 0.216504 7.67533 0.216504L9.00033 0.166504C12.492 0.166504 14.667 0.299837 15.5253 0.533171C16.2753 0.741504 16.7587 1.22484 16.967 1.97484Z"></path></svg>